<svg width="154" height="154" viewBox="0 0 154 154" fill="none" xmlns="http://www.w3.org/2000/svg">
<path d="M76.9334 153.611L32.49 141.273L22.586 30.1882H131.414L121.499 141.256L76.9334 153.611Z" fill="#536B7D"/>
<path d="M113.012 134.183L121.484 39.271H77V144.167L113.012 134.183Z" fill="#758EA1"/>
<path d="M45.2907 80.4708L46.5118 94.0948H77V80.4708H45.2907Z" fill="#EBEBEB"/>
<path d="M42.8372 52.8953L44.0756 66.5195H77V52.8953H42.8372Z" fill="#EBEBEB"/>
<path d="M77 115.854L76.9403 115.87L61.767 111.773L60.797 100.907H47.1206L49.0293 122.299L76.9373 130.046L77 130.029V115.854Z" fill="#EBEBEB"/>
<path d="M48.1979 0H64.6991V6.90049H55.0984V13.801H64.6991V20.7015H48.1979V0Z" fill="white"/>
<path d="M67.9994 0H84.5005V6.00043H74.8998V7.20051H84.5005V21.0015H67.9994V14.701H77.6V13.501H67.9994V0Z" fill="white"/>
<path d="M87.8008 0H104.302V6.00043H94.7013V7.20051H104.302V21.0015H87.8008V14.701H97.4015V13.501H87.8008V0Z" fill="white"/>
<path d="M108.622 80.4708L111.082 52.8953H76.9529V66.5195H96.1506L94.911 80.4708H76.9529V94.0948H93.7295L92.1481 111.764L76.9529 115.866V130.04L104.883 122.299L105.088 119.997L108.29 84.1293L108.622 80.4708Z" fill="white"/>
</svg>
