<svg width="186" height="186" viewBox="0 0 186 186" fill="none" xmlns="http://www.w3.org/2000/svg">
<path d="M111.152 80.8036C107.086 80.8036 104.057 82.8003 104.057 87.6057C104.057 91.2263 106.053 93.7403 110.933 93.7403C115.069 93.7403 117.879 91.3028 117.879 87.4562C117.879 83.0967 115.365 80.8036 111.152 80.8036ZM103.022 114.735C102.06 115.916 101.101 117.171 101.101 118.652C101.101 121.606 104.868 122.496 110.044 122.496C114.331 122.496 120.171 122.195 120.171 118.209C120.171 115.839 117.362 115.693 113.812 115.471L103.022 114.735ZM124.901 81.0269C126.229 82.7273 127.636 85.0934 127.636 88.4933C127.636 96.6976 121.205 101.501 111.894 101.501C109.526 101.501 107.382 101.207 106.053 100.837L103.613 104.754L110.856 105.197C123.645 106.012 131.182 106.382 131.182 116.209C131.182 124.711 123.718 129.513 110.856 129.513C97.4776 129.513 92.3774 126.114 92.3774 120.275C92.3774 116.948 93.8561 115.178 96.4431 112.734C94.003 111.703 93.1911 109.856 93.1911 107.859C93.1911 106.232 94.003 104.754 95.3356 103.349C96.6656 101.946 98.1434 100.54 99.9177 98.9143C96.2962 97.1401 93.5605 93.2961 93.5605 87.8257C93.5605 79.3266 99.1788 73.4893 110.486 73.4893C113.665 73.4893 115.588 73.7814 117.288 74.2282H131.702V80.5088L124.901 81.0269Z" fill="white"/>
<path d="M144.706 67.595C140.492 67.595 138.054 65.154 138.054 60.9389C138.054 56.7297 140.492 54.4365 144.706 54.4365C148.994 54.4365 151.433 56.7297 151.433 60.9389C151.433 65.154 148.994 67.595 144.706 67.595ZM135.169 112.015V106.178L138.94 105.663C139.976 105.513 140.123 105.293 140.123 104.182V82.4503C140.123 81.6392 139.902 81.1195 139.16 80.8995L135.169 79.4939L135.982 73.5087H151.284V104.182C151.284 105.367 151.356 105.513 152.467 105.663L156.237 106.178V112.015H135.169Z" fill="white"/>
<path d="M185.467 109.149C182.288 110.7 177.632 112.105 173.417 112.105C164.621 112.105 161.296 108.561 161.296 100.204V80.8392C161.296 80.3967 161.296 80.1003 160.702 80.1003H155.529V73.5215C162.036 72.7809 164.621 69.528 165.434 61.4714H172.457V71.9707C172.457 72.4862 172.457 72.7096 173.049 72.7096H183.47V80.1003H172.457V97.7652C172.457 102.126 173.493 103.825 177.482 103.825C179.555 103.825 181.696 103.309 183.47 102.644L185.467 109.149Z" fill="white"/>
<path d="M75.9466 89.7519L42.1498 55.9577C40.2049 54.011 37.048 54.011 35.1005 55.9577L28.0826 62.9755L36.9851 71.8781C39.0541 71.1791 41.4262 71.6479 43.0756 73.2973C44.7326 74.9568 45.198 77.3494 44.482 79.4251L53.0618 88.0049C55.1375 87.2897 57.5326 87.7526 59.1905 89.413C61.5074 91.7291 61.5074 95.4831 59.1905 97.8009C56.8727 100.119 53.1187 100.119 50.8001 97.8009C49.0573 96.0564 48.6267 93.4965 49.5091 91.3495L41.5077 83.3481L41.5069 104.404C42.0717 104.685 42.605 105.057 43.0756 105.526C45.3925 107.842 45.3925 111.596 43.0756 113.916C40.7578 116.233 37.0021 116.233 34.6877 113.916C32.3708 111.596 32.3708 107.842 34.6877 105.526C35.2602 104.955 35.9226 104.522 36.6293 104.232V82.9795C35.9226 82.6907 35.261 82.2609 34.6877 81.6851C32.9322 79.9321 32.5101 77.3561 33.4095 75.2006L24.6344 66.4238L1.46082 89.5956C-0.486656 91.544 -0.486656 94.7009 1.46082 96.6475L35.2576 130.443C37.2034 132.389 40.3594 132.389 42.3078 130.443L75.9466 96.8046C77.8932 94.8571 77.8932 91.6985 75.9466 89.7519Z" fill="white"/>
</svg>
