<svg width="160" height="160" viewBox="0 0 160 160" fill="none" xmlns="http://www.w3.org/2000/svg">
<path d="M136.534 31.3644L126.233 146.759L79.9309 159.596L33.756 146.777L23.4659 31.3644H136.534Z" fill="#536B7D"/>
<path d="M80 149.784L117.415 139.411L126.217 40.8009H80V149.784Z" fill="#758EA2"/>
<path d="M59.9756 69.1111H80V54.9562H44.5061L44.8448 58.7537L48.324 97.7609H80V83.606H61.2694L59.9756 69.1111ZM63.1659 104.839H48.9565L50.9394 127.064L79.9348 135.113L80 135.095V120.368L79.938 120.384L64.1737 116.128L63.1659 104.839Z" fill="#EBEBEB"/>
<path d="M33.9856 0H41.1789V7.10692H47.7593V0H54.9531V21.5215H47.7598V14.3149H41.1794V21.5215H33.986V0H33.9856ZM64.4122 7.13706H58.0804V0H77.9426V7.13706H71.6069V21.5215H64.4135V7.13706H64.4131H64.4122ZM81.0947 0H88.5952L93.2091 7.5621L97.8185 0H105.322V21.5215H98.158V10.8543L93.2091 18.5064H93.085L88.133 10.8543V21.5215H81.0947V0ZM108.902 0H116.098V14.408H126.213V21.5215H108.901V0H108.902Z" fill="white"/>
<path d="M79.9512 97.7609H97.3815L95.7381 116.119L79.9508 120.38V135.106L108.969 127.064L109.182 124.672L112.509 87.407L112.854 83.606H79.9512V97.7609ZM79.9512 69.0766V69.1111H114.142L114.426 65.9298L115.071 58.7537L115.409 54.9562H79.9512V69.077V69.0766Z" fill="white"/>
</svg>
