<svg width="96" height="96" viewBox="0 0 96 96" fill="none" xmlns="http://www.w3.org/2000/svg">
<path d="M0 0H96V96H0V0Z" fill="white"/>
<path d="M88.1429 73.1042C87.4403 68.724 84.584 65.0464 76.1247 61.6152C73.1863 60.2647 69.9103 59.2975 68.9338 57.0708C68.5871 55.7749 68.5414 55.0449 68.7604 54.2601C69.3901 51.7141 72.4289 50.9202 74.838 51.6502C76.3893 52.1704 77.8585 53.3659 78.7437 55.273C82.8867 52.5902 82.8776 52.6084 85.7703 50.7651C84.7118 49.1226 84.146 48.365 83.4525 47.6625C80.9612 44.8792 77.5665 43.4465 72.1369 43.556C71.1969 43.6746 70.248 43.8023 69.308 43.921C66.5978 44.6054 64.0152 46.029 62.5004 47.9362C57.9559 53.0921 59.2517 62.1171 64.7817 65.8313C70.2296 69.9195 78.2327 70.8503 79.2547 74.6739C80.2494 79.3553 75.8145 80.87 71.4068 80.3317C68.1582 79.6564 66.3514 78.0047 64.3985 75.0024C60.8031 77.083 60.8031 77.083 57.1073 79.2092C57.9834 81.1256 58.9049 81.9925 60.3742 83.6534C67.3278 90.7074 84.73 90.3606 87.851 79.6838C87.9787 79.3187 88.8183 76.873 88.1429 73.1042ZM52.1886 44.1217H43.2091C43.2091 51.8784 43.1727 59.5803 43.1727 67.3369C43.1727 72.2738 43.4282 76.8 42.6252 78.1871C41.3111 80.9155 37.9073 80.578 36.356 80.0486C34.7773 79.2729 33.9742 78.1688 33.0434 76.6084C32.7879 76.1613 32.5963 75.8145 32.5323 75.7871C30.0959 77.2746 27.6684 78.771 25.2319 80.2586C26.4457 82.7498 28.2342 84.9126 30.5247 86.3178C33.9468 88.371 38.546 89.0007 43.3552 87.8965C46.4853 86.984 49.1863 85.0951 50.6007 82.2206C52.6449 78.4517 52.2068 73.889 52.1886 68.8426C52.2342 60.6114 52.1886 52.3803 52.1886 44.1217Z" fill="#2C4355"/>
</svg>
