<?xml version="1.0" encoding="UTF-8"?>
<!DOCTYPE svg PUBLIC "-//W3C//DTD SVG 1.1//EN" "http://www.w3.org/Graphics/SVG/1.1/DTD/svg11.dtd">
<!-- Creator: CorelDRAW 2020 (64-Bit) -->
<svg xmlns="http://www.w3.org/2000/svg" xml:space="preserve" width="30mm" height="30mm" version="1.1" style="shape-rendering:geometricPrecision; text-rendering:geometricPrecision; image-rendering:optimizeQuality; fill-rule:evenodd; clip-rule:evenodd"
viewBox="0 0 3000 3000"
 xmlns:xlink="http://www.w3.org/1999/xlink"
 xmlns:xodm="http://www.corel.com/coreldraw/odm/2003">
 <defs>
  <style type="text/css">
   <![CDATA[
    .str0 {stroke:white;stroke-width:50;stroke-miterlimit:22.9256}
    .fil0 {fill:none;fill-rule:nonzero}
    .fil1 {fill:white;fill-rule:nonzero}
   ]]>
  </style>
 </defs>
 <g id="Слой_x0020_1">
  <metadata id="CorelCorpID_0Corel-Layer"/>
  <path class="fil0 str0" d="M1493.81 1573.43c548.82,0 993.72,-168.9 993.72,-377.24 0,-208.35 -444.9,-377.25 -993.72,-377.25 -548.81,0 -993.71,168.9 -993.71,377.25 0,208.34 444.9,377.24 993.71,377.24z"/>
  <path class="fil0 str0" d="M1165.23 1384.81c274.41,472.56 643.97,771.19 825.44,667.02 181.47,-104.16 106.14,-571.7 -168.27,-1044.26 -274.41,-472.56 -643.97,-771.2 -825.44,-667.03 -181.47,104.17 -106.14,571.71 168.27,1044.27z"/>
  <path class="fil0 str0" d="M1165.23 1007.57c-274.41,472.56 -349.74,940.1 -168.27,1044.26 181.47,104.17 551.03,-194.46 825.44,-667.02 274.41,-472.56 349.74,-940.1 168.27,-1044.27 -181.47,-104.17 -551.03,194.47 -825.44,667.03z"/>
  <path class="fil1" d="M1493.81 1380.32c102.28,0 185.2,-82.44 185.2,-184.13 0,-101.69 -82.92,-184.13 -185.2,-184.13 -102.27,0 -185.19,82.44 -185.19,184.13 0,101.69 82.92,184.13 185.19,184.13z"/>
  <path class="fil1" d="M843.71 2728.29l-37.21 -107.24c-7.1,-21.09 -16.47,-37.56 -27.84,-49.65 -11.49,-11.96 -23.94,-18.01 -37.33,-18.01l-5.92 0 0 174.9 -150.01 0 0 -497.67 199.07 0c69.67,0 121.1,11.37 154.27,34.24 33.18,22.75 49.77,56.88 49.77,102.5 0,34.24 -9.6,62.92 -28.91,86.03 -19.32,23.22 -48.11,39.93 -86.26,50.36l0 1.42c21.09,6.4 38.62,16.94 52.61,31.52 14.1,14.57 26.66,36.26 37.68,64.93l49.05 126.67 -168.97 0zm-14.45 -339.72c0,-16.71 -5.1,-29.86 -15.29,-39.58 -10.07,-9.71 -26.07,-14.57 -47.75,-14.57l-30.81 0 0 113.75 27.02 0c20.14,0 36.25,-5.69 48.46,-16.94 12.2,-11.38 18.37,-25.6 18.37,-42.66zm354.88 203.93c2.61,15.28 11.38,27.25 26.42,36.02 15.05,8.65 34.96,13.03 59.72,13.03 34.49,0 67.19,-6.63 98,-19.9l0 93.61c-35.91,14.33 -79.39,21.56 -130.58,21.56 -61.97,0 -110.2,-15.88 -144.68,-47.51 -34.48,-31.64 -51.78,-75.25 -51.78,-130.82 0,-38.16 7.58,-71.81 22.75,-100.96 15.16,-29.03 37.56,-51.9 67.3,-68.49 29.74,-16.47 62.45,-24.76 98.35,-24.76 36.73,0 68.25,7.11 94.44,21.45 26.07,14.33 45.98,34.48 59.48,60.43 13.51,25.83 20.27,56.16 20.27,90.88l0 55.46 -219.69 0zm88.87 -77.5c0,-40.76 -14.69,-61.14 -44.08,-61.14 -12.32,0 -22.51,5.57 -30.93,16.71 -8.29,11.25 -13.15,25.95 -14.57,44.43l89.58 0zm378.94 213.29l0 -54.03 -1.42 0c-23.58,41.71 -59.6,62.56 -108.18,62.56 -33.54,0 -59.84,-9.95 -78.8,-29.86 -18.96,-19.91 -28.44,-46.45 -28.44,-79.74 0,-69.8 42.9,-110.32 128.68,-121.34l88.16 -11.5c0,-11.61 -5.21,-21.21 -15.64,-28.67 -10.31,-7.47 -24.29,-11.14 -41.94,-11.14 -39.7,0 -81.65,11.38 -125.84,34.13l0 -95.98c19.19,-8.3 43.25,-15.17 72.16,-20.5 28.91,-5.33 53.68,-7.94 74.29,-7.94 60.32,0 104.16,12.91 131.29,38.75 27.14,25.71 40.77,68.84 40.77,129.15l0 196.11 -135.09 0zm-87.44 -120.74c0,9.71 3.08,17.65 9.24,23.93 6.04,6.28 14.81,9.36 26.19,9.36 15.52,0 27.96,-5.8 37.56,-17.42 9.6,-11.49 14.45,-26.3 14.45,-44.43l0 -13.51 -50 6.99c-25,4.15 -37.44,15.76 -37.44,35.08zm582.27 110.55c-9.48,5.57 -24.41,10.07 -44.79,13.51 -20.38,3.43 -43.84,5.21 -70.38,5.21 -37.56,0 -71.1,-7.58 -100.48,-22.75 -29.51,-15.17 -52.38,-36.38 -68.61,-63.63 -16.24,-27.25 -24.29,-57.94 -24.29,-91.95 0,-40.64 8.65,-75.48 25.83,-104.51 17.3,-29.03 41.83,-51.31 73.82,-66.6 31.87,-15.4 68.96,-23.1 111.03,-23.1 23.1,0 43.96,1.54 62.33,4.5 18.36,2.96 30.21,6.52 35.54,10.43l0 115.17c-7.34,-5.8 -18.01,-10.9 -31.87,-15.4 -13.86,-4.38 -26.78,-6.64 -38.51,-6.64 -28.91,0 -50.84,6.88 -65.77,20.74 -14.93,13.75 -22.39,33.18 -22.39,58.18 0,24.53 7.35,43.61 22.04,57.11 14.69,13.63 34.84,20.39 60.55,20.39 27.49,0 52.85,-6.64 75.95,-19.91l0 109.25zm309.39 5.21c-6.76,3.2 -17.66,6.28 -32.95,9.13 -15.28,2.96 -33.65,4.38 -55.21,4.38 -41.12,0 -73.35,-11.37 -96.69,-34.01 -23.23,-22.63 -34.84,-54.98 -34.84,-96.81l0 -130.81 -56.17 0 0 -102.38 56.17 0 0 -69.91 145.75 -40.29 0 110.2 73.94 0 0 102.38 -73.94 0 0 106.64c0,31.28 12.44,46.93 37.2,46.93 11.5,0 23.82,-2.61 36.74,-7.82l0 102.37z"/>
 </g>
</svg>
