<svg width="170" height="133" viewBox="0 0 170 133" fill="none" xmlns="http://www.w3.org/2000/svg">
<path d="M146.293 76.4057C140.35 76.4407 135.203 77.9296 130.887 80.1466C129.293 76.8563 127.699 73.9812 127.434 71.8341C127.135 69.3404 126.77 67.8161 127.135 64.8378C127.5 61.8588 129.16 57.6333 129.16 57.2869C129.127 56.9752 128.795 55.4513 125.375 55.4166C121.955 55.382 119 56.1093 118.668 57.0445C118.336 57.9796 117.672 60.127 117.24 62.3437C116.643 65.5994 110.4 77.133 106.848 83.1942C105.686 80.839 104.689 78.7609 104.49 77.098C104.191 74.6046 103.826 73.0803 104.191 70.102C104.557 67.123 106.217 62.8979 106.217 62.5515C106.184 62.2398 105.852 60.7158 102.432 60.6812C99.0117 60.6466 96.057 61.3739 95.7249 62.3091C95.3929 63.2442 95.0277 65.4609 94.2972 67.6083C93.5996 69.7557 85.2988 89.013 83.1406 94.0351C82.0449 96.5981 81.0824 98.6416 80.3848 100.027C79.6875 101.412 80.3516 100.131 80.2852 100.269C79.6875 101.447 79.3555 102.105 79.3555 102.105V102.14C78.8906 103.006 78.3926 103.837 78.1598 103.837C77.9938 103.837 77.6618 101.516 78.2262 98.3302C79.4547 91.6453 82.443 81.2203 82.4101 80.8393C82.4101 80.6662 82.9743 78.8301 80.484 77.8953C78.0602 76.9602 77.1973 78.5188 76.9977 78.5188C76.7985 78.5188 76.6325 79.0729 76.6325 79.0729C76.6325 79.0729 79.3219 67.3319 71.486 67.3319C66.5719 67.3319 59.7985 72.9082 56.445 77.9996C54.32 79.2118 49.8044 81.7745 45.0231 84.511C43.1969 85.5501 41.3044 86.6584 39.5114 87.6629L39.1465 87.2465C29.6504 76.6827 12.0859 69.2015 12.8164 55.001C13.082 49.8403 14.8086 36.2286 46.5511 19.7422C72.5492 6.23435 93.3675 9.94034 96.9863 18.1836C102.133 29.9596 85.8633 51.8492 58.8363 55.001C48.5433 56.2132 43.1309 52.057 41.7699 50.4984C40.3421 48.8705 40.1429 48.8013 39.6117 49.113C38.7484 49.5979 39.2796 51.0526 39.6117 51.9184C40.4085 54.1005 43.7288 57.9796 49.3734 59.9192C54.3203 61.6164 66.4066 62.5515 81.016 56.6635C97.3851 50.0481 110.168 31.6914 106.416 16.3479C102.598 0.727322 77.762 -4.39872 54.2874 4.29477C40.3086 9.49008 25.168 17.5948 14.2773 28.2278C1.32813 40.8351 -0.730467 51.8492 0.132814 56.421C3.15463 72.7343 24.7031 83.3674 33.3359 91.2296C32.9043 91.4717 32.5059 91.7142 32.1406 91.9223C27.8242 94.1387 11.3887 103.11 7.27149 112.599C2.62305 123.336 8.00195 131.06 11.5879 132.099C22.6777 135.32 34.0332 129.536 40.1758 120.012C46.2848 110.487 45.5547 98.1221 42.7324 92.4765L42.6325 92.2687L46.0192 90.1906C48.2109 88.8398 50.3691 87.5929 52.2614 86.5189C51.1992 89.5321 50.4352 93.0996 50.0371 98.2949C49.5723 104.391 51.9629 112.288 55.1172 115.405C56.5117 116.755 58.1719 116.79 59.2012 116.79C62.8535 116.79 64.5137 113.638 66.3398 109.863C68.5977 105.257 70.5898 99.9228 70.5898 99.9228C70.5898 99.9228 68.0996 114.366 74.9062 114.366C77.3965 114.366 79.8867 111.006 81.0156 109.274V109.309C81.0156 109.309 81.082 109.205 81.2148 108.963C81.3542 108.748 81.487 108.528 81.6133 108.305V108.236C82.6094 106.435 84.834 102.313 88.1543 95.4898C92.4372 86.6924 96.5547 75.6783 96.5547 75.6783C96.5547 75.6783 96.9531 78.3799 98.1816 82.8132C98.9118 85.4459 100.506 88.3203 101.734 91.1257C100.738 92.5804 100.14 93.412 100.14 93.412L100.173 93.4466C99.3769 94.555 98.4801 95.7329 97.5508 96.9102C94.1641 101.136 90.1133 105.95 89.582 107.336C88.9512 108.963 89.084 110.176 90.3125 111.146C91.209 111.838 92.8027 111.977 94.4961 111.838C97.5508 111.63 99.6758 110.834 100.738 110.349C102.398 109.725 104.291 108.79 106.117 107.405C109.437 104.842 111.463 101.205 111.264 96.3564C111.164 93.6894 110.334 91.0571 109.305 88.5634C109.604 88.1131 109.903 87.6625 110.201 87.178C115.447 79.1768 119.498 70.3798 119.498 70.3798C119.498 70.3798 119.896 73.0814 121.125 77.5147C121.756 79.766 123.018 82.2255 124.146 84.6499C119.232 88.8408 116.145 93.6898 115.082 96.8762C113.123 102.764 114.65 105.431 117.539 106.055C118.834 106.332 120.693 105.708 122.088 105.085C123.814 104.496 125.906 103.491 127.832 102.002C131.152 99.4393 134.34 95.8718 134.174 91.0575C134.074 88.8408 133.51 86.6588 132.746 84.5807C136.93 82.7796 142.341 81.7406 149.215 82.6064C163.99 84.4075 166.912 94.0361 166.348 98.0538C165.784 102.072 162.696 104.288 161.666 104.981C160.637 105.639 160.305 105.882 160.404 106.366C160.537 107.094 161.002 107.059 161.898 106.921C163.127 106.713 169.668 103.63 169.934 96.2189C170.332 86.6927 161.666 76.3021 146.293 76.4057V76.4057ZM32.3398 116.479C27.459 122.055 20.5859 124.168 17.6641 122.367C14.5098 120.462 15.7379 112.253 21.748 106.331C25.4004 102.729 30.1484 99.4036 33.2695 97.3601C33.9668 96.9098 35.0293 96.2521 36.291 95.4551C36.4902 95.317 36.623 95.2473 36.623 95.2473C36.8555 95.1088 37.1211 94.9356 37.3867 94.7624C39.6113 103.213 37.4863 110.625 32.3398 116.479V116.479ZM68.0332 91.1604C66.3398 95.4898 62.7539 106.608 60.5957 105.984C58.736 105.465 57.6074 97.0484 60.2301 88.7359C61.5583 84.5446 64.3805 79.5575 66.0407 77.6176C68.7305 74.5004 71.652 73.4613 72.3828 74.7428C73.2461 76.4057 69.0957 88.4588 68.0332 91.1604ZM97.4844 105.846C96.7539 106.227 96.0898 106.504 95.791 106.296C95.5586 106.158 96.0895 105.638 96.0895 105.638C96.0895 105.638 99.775 101.517 101.236 99.6117C102.066 98.5038 103.062 97.2222 104.125 95.7672V96.1828C104.125 101.17 99.543 104.495 97.4844 105.846ZM120.195 100.443C119.664 100.027 119.73 98.7455 121.523 94.7278C122.221 93.1346 123.814 90.4676 126.57 87.9393C126.902 88.9783 127.102 89.9824 127.068 90.9179C127.035 97.1523 122.785 99.4729 120.195 100.443Z" fill="#d4b44f"/>
</svg>
