<?xml version="1.0" encoding="UTF-8"?>
<!DOCTYPE svg PUBLIC "-//W3C//DTD SVG 1.1//EN" "http://www.w3.org/Graphics/SVG/1.1/DTD/svg11.dtd">
<!-- Creator: CorelDRAW 2020 (64-Bit) -->
<svg xmlns="http://www.w3.org/2000/svg" xml:space="preserve" width="154" height="154" version="1.1" style="shape-rendering:geometricPrecision; text-rendering:geometricPrecision; image-rendering:optimizeQuality; fill-rule:evenodd; clip-rule:evenodd"
viewBox="0 0 3000 3000"
 xmlns:xlink="http://www.w3.org/1999/xlink"
 xmlns:xodm="http://www.corel.com/coreldraw/odm/2003">
 <defs>
  <style type="text/css">
   <![CDATA[
    .fil3 {fill:#fff}
    .fil1 {fill:#536B7D}
    .fil0 {fill:#536B7D}
    .fil2 {fill:#758EA1}
   ]]>
  </style>
 </defs>
 <g id="Слой_x0020_1">
  <metadata id="CorelCorpID_0Corel-Layer"/>
  <g id="_1660495520432">
   <path class="fil0" d="M1008.53 900.86c39.08,31.7 468.7,277.07 486.19,277.1 26.7,0.05 203.97,-111.76 244.39,-134.19l244.05 -142.91c-13.36,-16.39 -463.74,-265.49 -482.55,-267.76 -32.06,-3.86 -304.43,159.05 -368.07,193.59 -18.16,9.86 -39.84,21.7 -60.19,32.16l-58.97 37.23c-1.14,1.02 -3.38,3.05 -4.85,4.78z"/>
   <path class="fil1" d="M1458.72 1762.2l1.41 -520.28c-58.22,-35.87 -460.49,-270.51 -492.62,-276.81l-0.26 486.87c1.34,66.17 28.68,58.79 77.32,86.05 68.39,38.34 363.7,207.9 414.15,224.17z"/>
   <path class="fil0" d="M1531.25 1241.87l-1.91 521.27c47.29,-14.55 312.56,-168 394.28,-212.44 71.29,-38.77 98.23,-26.64 98.31,-116.44l0.12 -471.46c-35.49,10.69 -429.42,242.02 -490.8,279.07z"/>
   <path class="fil2" d="M2089.62 977.06l0.91 550.34c21.17,16.64 276.06,161.59 289.25,165.48 10.37,-294.54 3.19,-636.05 3.04,-935.83 -46.45,9.38 -186.66,106.32 -245.11,135.32 -52.03,25.82 -48.56,21.29 -48.09,84.69z"/>
   <path class="fil2" d="M664.51 1748.62c47.87,28.68 752.63,433.32 796.76,442.9l0.35 -283.48c1.2,-85.56 -15.12,-72.16 -79.92,-107.4 -84.01,-45.69 -160.05,-87.56 -240.18,-131.64 -189.23,-104.1 -158.34,-110.95 -244.03,-61.36 -46.4,26.86 -201.44,105.66 -232.98,140.98z"/>
   <path class="fil2" d="M650.26 697.66c65.5,43.35 135.79,77.79 197.93,113.1 105.45,59.92 68.12,55.95 212.42,-22.94 61.89,-33.84 369.39,-195.96 399.31,-225.63l1.18 -330.07c-35.47,8.75 -359.82,193.3 -410.39,224.93l-384.3 217.16c-14.04,11.67 -10.58,4.83 -16.15,23.45z"/>
   <path class="fil2" d="M2339.1 697.66c-6.33,-19.24 -10.78,-21.24 -37.3,-35.69l-357.74 -201.69c-56.48,-31.09 -380.39,-221.54 -413.93,-227.78 -3.46,63.43 -0.78,130.33 -1.08,194.23 -0.31,66.26 -17.16,132.38 33.25,161l383.51 209.9c132.75,70.76 93.94,77.01 265.81,-26.24 42.19,-25.34 84.03,-46.2 127.48,-73.73z"/>
   <path class="fil2" d="M605.41 1689.11c33.87,-5.01 259.67,-136.88 292.05,-161.72l2.09 -606.71c-46.98,-26.77 -247.1,-154.97 -292.16,-163.04l-1.98 931.47z"/>
   <path class="fil2" d="M1530.92 1842.29l-2.29 349.02c23.79,-4.79 703.4,-380.62 795.9,-442.83 -40.1,-40.2 -130.65,-81.99 -189.6,-116.19 -104.13,-60.41 -90.39,-75.55 -205.16,-8.44 -127.22,74.39 -272.47,152.2 -398.85,218.44z"/>
   <g>
    <path class="fil3" d="M566.74 2435.93l-71.62 1.55 76.14 258.5 75.93 0.93 51.47 -158.06 46.32 152.97c23.21,7.94 46.35,6.49 77.53,2.62l72.73 -258.02 -71.04 -0.94 -42.73 168.43c-19.16,-52.05 -35.1,-111.24 -54.07,-167.47l-63.58 -0.12 -51.5 169.28c-15.01,-48.54 -30.96,-122.87 -45.58,-169.67z"/>
    <path class="fil3" d="M1252.19 2585.87c-19.77,-116.47 121.52,-126.01 128.19,-33.36 8.6,119.45 -115.59,107.6 -128.19,33.36zm-69.14 113.49l68.81 -0.23 0.06 -23.86c131.16,119.94 297.73,-119.38 147.49,-225.62 -45.42,-34.3 -105.57,-14.93 -147.31,2.84 -0.6,-64.29 0.13,-107.09 -0.27,-116.75 -0.04,-0.91 1.1,0 0,0 -11.9,0 -34.13,-0.05 -68.69,0.13l-0.09 363.49z"/>
    <path class="fil3" d="M1583.99 2497.73c88.56,-48.97 131.36,109.42 51.94,138.55 -90.89,33.33 -123.23,-99.13 -51.94,-138.55zm-36.46 179.2c2.47,1.33 5.47,2.96 7.38,4.04 106.24,60.2 191.21,-11.95 192.01,-112.07 0.47,-59.42 -23.95,-101.88 -57.39,-121.59 -47.76,-28.16 -106.15,-23.82 -139.84,8.35 -0.34,0.33 -0.15,-19.68 -0.5,-19.33l-70.27 0.14 1.2 348.06 66.86 -0.12 0.55 -107.48z"/>
    <path class="fil3" d="M2256.16 2699.26l66.91 0.02 3.33 -127.93c17.25,14.49 56.61,84.07 88.57,124.76l73.25 -0.31c-23.11,-36.18 -65.22,-98.72 -93.06,-143.94 31.38,-43.34 53.12,-69.78 85.13,-116.45l-73.79 1.18c-20.66,25.63 -58.8,73.37 -80.77,94.08l-1.13 -194.94 -64.84 0.07 -3.6 363.46z"/>
    <path class="fil3" d="M977.29 2537.49c15.43,-75.76 95.67,-67.15 107.99,-0.31l-107.99 0.31zm174.44 45.65c42.11,-168.2 -203.03,-215.1 -244.34,-56.93 -29.05,111.2 60.26,201.88 171.19,171.58 43.61,-19.94 54.22,-28.18 69.59,-55.15l-44.99 -27.36c-54.97,34.14 -112.31,45.34 -128.87,-32.74l177.42 0.6z"/>
    <path class="fil3" d="M1915.45 2592.89l0.95 35.53c-89.59,89.73 -126.53,-105.78 -0.95,-35.53zm-135.98 -134.58l15.12 46.36c55.28,-11.88 108.09,-46.89 122.68,33.72 -134.15,-24 -164.47,33.89 -148.41,110.92 34.84,84.23 145.22,40.57 145.26,40.57 0.85,0 17.99,-16.09 17.93,-14.87 -0.18,3.69 0.45,16.17 0.76,23.35 0.02,0.39 0.28,0.89 0.59,0.89 9.85,-0.02 35.91,0.46 55.29,0.03 -0.39,-52.42 6.83,-195.41 -20.14,-234.49 -32.09,-46.51 -138.39,-47 -189.08,-6.48z"/>
    <path class="fil3" d="M2229.66 2676.91c-6.04,-29.23 -10.59,-43.41 -13.51,-51.26 -1.09,-2.9 -71.48,32.58 -111.03,-0.51 -53.94,-45.14 -38.11,-163.8 107.95,-111.89 6.34,-29.3 6.47,-28.48 15.63,-59.94 -108.75,-52.04 -223.72,1.6 -218.26,116.78 8.45,178.33 222.05,120.54 219.22,106.82z"/>
   </g>
  </g>
 </g>
</svg>
