<?xml version="1.0" encoding="utf-8"?>

<svg width="800px" height="800px" viewBox="0 -1.53 178.53 178.53" xmlns="http://www.w3.org/2000/svg">

<defs>

<style>.cls-1{fill:#000;}</style>

</defs>

<g id="Layer_2" data-name="Layer 2">

<g id="Layer_1-2" data-name="Layer 1">

<path d="M96.91,49.5c5.93-5.09,11.09-9.62,16.36-14Q124.51,26.17,135.91,17a26.34,26.34,0,0,1,5.85-3.57c4.25-1.87,7.62-1.13,10.79,2.37,7.5,8.26,15.24,16.33,20.28,26.51,1.64,3.31,3.87,6.34,5.7,9.3,0,6-3.42,9.52-7.61,12.81-10.58,8.33-21,16.86-31.45,25.34A16.61,16.61,0,0,0,137.64,92c4.6,5.49,9.27,10.85,13.69,16.4s8.94,11.22,12.89,17.18,9.61,10.67,12.14,17.81A99.14,99.14,0,0,1,155,162.65c-7.7,5.17-15.06,11.44-24.87,12.83-4.62-4.5-7.9-9.53-11.22-14.49-4.31-6.42-8.33-13-12.8-19.34-3.44-4.87-7.37-9.4-11.44-14.53-1.82,1.24-3.23,2.07-4.49,3.09Q68.8,147.52,47.48,164.87c-4.7,3.81-9.71,7.13-15.55,9-2.73.86-4.75.25-6.71-2.16-5-6.22-10.49-12.12-15.69-18.22-4.08-4.8-7.93-9.73-9.26-16.18-.57-2.75-.32-5.09,1.53-7.21,1.32-1.51,2.6-3.06,4-4.51,11.85-12.44,23.33-25.25,36.65-36.21a18.68,18.68,0,0,0,2.1-2.4c-.1-.84,0-1.53-.25-1.89-7-9-14.14-18-21.18-27-4.06-5.19-8-10.44-12-15.69a18.22,18.22,0,0,1-1.79-2.93c-2.33-4.73-1.92-8.91,2-12.49,5.93-5.39,12.25-10.34,18.32-15.58a66,66,0,0,1,15.9-10.1c4.2-1.92,5.21-1.88,8,1.88,9.61,13,21.69,23.61,32.76,35.2C89.63,41.83,93,45.34,96.91,49.5ZM31.11,164.63c8.62-3.59,14.36-10.22,21.18-15.3C59.41,144,66.08,138.16,73,132.59c6.64-5.35,13.33-10.63,19.73-15.72,4.44,1.52,6.55,4.71,8.93,7.51a307.16,307.16,0,0,1,24.76,32.9c2,3.09,4.07,6.18,7.77,7.83,11.74-5.86,21.5-14,30.56-22.74-.2-1.05-.13-1.72-.43-2.12-10.87-14.35-20.57-29.61-33.15-42.62A42.47,42.47,0,0,1,127.32,93c-1.2-1.67-1.92-3.53-.86-5.59,8.08-4.58,30.06-22.25,42.67-34.28-4.25-11.23-12.95-24.84-22.62-31.95-1.76,1.19-3.66,2.42-5.5,3.74a344.22,344.22,0,0,0-34.36,28.48c-7.25,6.77-12.86,5.66-18.88-1.12C76.94,40.1,65.5,28.44,54.31,16.56c-2.39-2.53-5-4.73-8.53-5C37.14,16,22,27.7,15.64,35c1.89,2.63,3.74,5.48,5.86,8.12Q31.67,55.84,42,68.42c3.07,3.74,6.24,7.4,9.45,11,2.3,2.6,4.19,5.35,4.4,9.56-7.16,8.25-16.8,14.23-24.24,22.49C24,120,15.56,127.63,8.5,136.44,14.24,147.72,22.52,156.25,31.11,164.63Z" fill="#d4b44f"/>

<path class="cls-1" d="M31.11,164.63c-8.59-8.38-16.87-16.91-22.61-28.19C15.56,127.63,24,120,31.64,111.5,39.08,103.24,48.72,97.26,55.88,89c-.21-4.21-2.1-7-4.4-9.56-3.21-3.63-6.38-7.29-9.45-11Q31.7,55.84,21.5,43.13c-2.12-2.64-4-5.49-5.86-8.12C22,27.7,37.14,16,45.78,11.52c3.56.31,6.14,2.51,8.53,5C65.5,28.44,76.94,40.1,87.77,52.29c6,6.78,11.63,7.89,18.88,1.12A344.22,344.22,0,0,1,141,24.93c1.84-1.32,3.74-2.55,5.5-3.74,9.67,7.11,18.37,20.72,22.62,32-12.61,12-34.59,29.7-42.67,34.28-1.06,2.06-.34,3.92.86,5.59a42.47,42.47,0,0,0,3.85,4.62c12.58,13,22.28,28.27,33.15,42.62.3.4.23,1.07.43,2.12-9.06,8.71-18.82,16.88-30.56,22.74-3.7-1.65-5.79-4.74-7.77-7.83a307.16,307.16,0,0,0-24.76-32.9c-2.38-2.8-4.49-6-8.93-7.51C86.33,122,79.64,127.24,73,132.59c-6.92,5.57-13.59,11.45-20.71,16.74C45.47,154.41,39.73,161,31.11,164.63Z" fill="#d4b44f"/>

</g>

</g>

</svg>