<?xml version="1.0" encoding="utf-8"?>

<svg width="800px" height="800px" viewBox="-16.91 0 178.11 178.11" xmlns="http://www.w3.org/2000/svg">

<defs>

<style>.cls-1{fill:#000;}</style>

</defs>

<g id="Layer_2" data-name="Layer 2">

<g id="Layer_1-2" data-name="Layer 1">

<path d="M5.07,131.57c9.37-1,18.71-2.26,28.09-3,14.83-1.1,29.69-1.77,44.53-2.74,7.42-.49,14.82-1.24,22.23-1.87,8.83-.75,17.65-1.7,26.5-2.14a49.27,49.27,0,0,1,11,1.21,6,6,0,0,1,4.76,4.47c.49,1.64,1.3,3.29,1.35,4.94.32,10.82,1.76,21.67-.65,32.18-5.49,4.83-11.83,5.71-18.51,6.24-14,1.1-27.88,2.74-41.83,4.06-6.52.61-13,1.13-19.59,1.47-12,.63-24,1.07-35.92,1.64a45.46,45.46,0,0,1-14.4-1.85c-6.19-1.71-7.86-3.86-8-10.35-.2-8.29-.25-16.59-.42-24.89,0-2.27-.31-4.53-.37-6.81C3.85,133.67,4.31,133.16,5.07,131.57Zm8.33,35.29c3.59.82,6.33,1.63,9.12,2a32.49,32.49,0,0,0,6,0c8.29-.34,16.59-.6,24.88-1.1,9.42-.56,18.87-1.06,28.25-2.11,13.93-1.54,27.81-3.54,41.72-5.34a69.6,69.6,0,0,0,13.18-2.77c.3-8.61.75-17-1.18-25.39a13,13,0,0,0-8.44-2.24c-9.4.78-18.82,1.49-28.21,2.37-5.09.47-10.14,1.4-15.23,1.77-7.12.51-14.29.43-21.4,1.07-11.39,1-22.76,2.35-34.11,3.75a63.33,63.33,0,0,0-15.59,3.54C12.73,150.65,13.05,158.33,13.4,166.86Z" fill="#d4b44f"/>

<path d="M114.54,60.93c5.72,0,11.44,0,17.17,0,5.07,0,7.58,2.64,9,7.4a62.68,62.68,0,0,1,1.1,33c-.76,3.35-3.26,4.53-5.84,5.67a10.45,10.45,0,0,1-4.19.57,129.92,129.92,0,0,0-27.21,2.81c-7.81,1.59-15.85,2.11-23.81,2.82-7.64.68-15.33.88-23,1.5-6.83.56-13.65,1.24-20.44,2.17a57.25,57.25,0,0,1-17.09,0c-2.81-.44-5.71-.26-8.55-.57-5.36-.56-8.15-3-9.5-8.24C1.6,105.6.8,103,1,100.5,1.48,92.23,2.29,84,3.23,75.73c.33-2.91,1.95-4.16,5.48-4.34,7.74-.38,15.33-1.71,23-2.79,15.29-2.16,30.66-3.81,46-5.33,12.24-1.21,24.52-1.91,36.78-2.83C114.51,60.6,114.53,60.76,114.54,60.93Zm-103.82,46c5.9.51,11.58,1.55,17.22,1.35,14.55-.49,29.13-1.13,43.62-2.45,17.34-1.59,34.62-3.92,51.91-6,3.1-.37,6.18-.91,10.2-1.51,2.49-9.48,2.85-18.71-.61-27.67-6.39-2.7-12.39-2.5-18.38-2-11.68.88-23.34,1.89-35,2.83-6.24.5-12.53.72-18.74,1.51-13.58,1.72-27.15,3.66-40.7,5.66-3.32.49-6.55,1.55-9.58,2.29A55.68,55.68,0,0,0,10.72,106.89Z" fill="#d4b44f"/>

<path d="M3.77,52.18c-1.06-3.42-2.09-5.8-2.51-8.28A92.19,92.19,0,0,1,.8,16.55c.79-6.09,2.56-8.11,8.54-8.8,16.75-1.93,33.49-3.93,50.28-5.4C71,1.36,82.47,1.51,93.85.61,104.14-.21,114.41,0,124.69.13c9.38.14,10.44,1.09,13,10.19.47,1.65.88,3.32,1.26,5,2.21,9.94,3.14,19.78-2.48,29.36-2.39,1.87-5.61,2-8.68,2.45-16.09,2.52-32.29,4-48.51,5.36-16.83,1.46-33.66,2-50.51,2.38a112,112,0,0,1-13.71-.38C11.45,54.12,7.88,53.05,3.77,52.18ZM9.7,45.71a83.23,83.23,0,0,0,9,.78c16-.33,32.08-.31,48.06-1.36C84.13,44,101.48,41.91,118.83,40c4.44-.48,9.16-.59,13.34-4,.2-8.92,1.42-18-2.86-26.08-4.68-2.42-9-2.09-13.28-2-8.27.24-16.53.69-24.8.84C74.92,9.09,58.74,11,42.54,12.65,33.71,13.56,24.87,14.24,16,15c-2.81.25-5.69.25-8.38,2.54C8.06,26.61,7.38,35.75,9.7,45.71Z" fill="#d4b44f"/>

<path class="cls-1" d="M13.4,166.86c-.35-8.53-.67-16.21-1-24.39A63.33,63.33,0,0,1,28,138.93c11.35-1.4,22.72-2.72,34.11-3.75,7.11-.64,14.28-.56,21.4-1.07,5.09-.37,10.14-1.3,15.23-1.77,9.39-.88,18.81-1.59,28.21-2.37a13,13,0,0,1,8.44,2.24c1.93,8.35,1.48,16.78,1.18,25.39a69.6,69.6,0,0,1-13.18,2.77c-13.91,1.8-27.79,3.8-41.72,5.34-9.38,1-18.83,1.55-28.25,2.11-8.29.5-16.59.76-24.88,1.1a32.49,32.49,0,0,1-6,0C19.73,168.49,17,167.68,13.4,166.86Z" fill="#d4b44f"/>

<path class="cls-1" d="M10.72,106.89a55.68,55.68,0,0,1-.08-26c3-.74,6.26-1.8,9.58-2.29,13.55-2,27.12-3.94,40.7-5.66,6.21-.79,12.5-1,18.74-1.51,11.68-.94,23.34-2,35-2.83,6-.46,12-.66,18.38,2,3.46,9,3.1,18.19.61,27.67-4,.6-7.1,1.14-10.2,1.51-17.29,2.05-34.57,4.38-51.91,6-14.49,1.32-29.07,2-43.62,2.45C22.3,108.44,16.62,107.4,10.72,106.89Z" fill="#d4b44f"/>

<path class="cls-1" d="M9.7,45.71c-2.32-10-1.64-19.1-2-28.15C10.35,15.27,13.23,15.27,16,15c8.83-.78,17.67-1.46,26.5-2.37C58.74,11,74.92,9.09,91.23,8.8,99.5,8.65,107.76,8.2,116,8c4.27-.13,8.6-.46,13.28,2,4.28,8.07,3.06,17.16,2.86,26.08-4.18,3.41-8.9,3.52-13.34,4-17.35,1.91-34.7,4-52.11,5.13-16,1-32,1-48.06,1.36A83.23,83.23,0,0,1,9.7,45.71Z" fill="#d4b44f"/>

</g>

</g>

</svg>