<?xml version="1.0" encoding="UTF-8"?>
<!DOCTYPE svg PUBLIC "-//W3C//DTD SVG 1.1//EN" "http://www.w3.org/Graphics/SVG/1.1/DTD/svg11.dtd">
<!-- Creator: CorelDRAW 2020 (64-Bit) -->
<svg xmlns="http://www.w3.org/2000/svg" xml:space="preserve" width="30mm" height="30mm" version="1.1" style="shape-rendering:geometricPrecision; text-rendering:geometricPrecision; image-rendering:optimizeQuality; fill-rule:evenodd; clip-rule:evenodd"
viewBox="0 0 3000 3000"
 xmlns:xlink="http://www.w3.org/1999/xlink"
 xmlns:xodm="http://www.corel.com/coreldraw/odm/2003">
 <defs>
  <style type="text/css">
   <![CDATA[
    .fil1 {fill:#000}
    .fil0 {fill:#d4b44f;fill-rule:nonzero}
   ]]>
  </style>
 </defs>
 <g id="Слой_x0020_1">
  <metadata id="CorelCorpID_0Corel-Layer"/>
  <path class="fil0" d="M1492.93 7.77c828.04,0 1499.31,671.26 1499.31,1499.3 0,828.04 -671.27,1499.31 -1499.31,1499.31 -828.04,0 -1499.3,-671.27 -1499.3,-1499.31 0,-828.04 671.26,-1499.3 1499.3,-1499.3z"/>
  <path class="fil1" d="M1490.35 687.87c-463.72,0.43 -839.26,376.7 -838.83,840.39 0.35,361.17 231.6,681.64 574.25,795.8 41.98,7.76 57.15,-18.35 57.15,-40.22 0,-21.87 0,-86.43 0,-156.28 -233.54,50.45 -282.22,-99.13 -282.22,-99.13 -38.1,-97.01 -93.14,-123.12 -93.14,-123.12 -76.2,-51.86 5.65,-50.8 5.65,-50.8 53.97,7.37 101.49,39.26 128.76,86.43 74.79,128.41 196.5,91.37 244.48,70.56 3.56,-42.62 22.5,-82.48 53.27,-112.19 -186.62,-21.16 -382.77,-93.48 -382.77,-415.22 -1.16,-83.39 29.92,-164.04 86.79,-225.07 -25.9,-72.39 -22.97,-151.94 8.11,-222.25 0,0 70.56,-22.58 230.72,86.08 137.65,-37.64 282.89,-37.64 420.51,0 160.51,-108.66 230.71,-86.08 230.71,-86.08 31.12,70.31 34.01,149.86 8.12,222.25 56.76,61.07 87.73,141.71 86.43,225.07 0,322.79 -196.15,393.7 -383.12,414.52 40.39,41.27 61.1,97.96 56.8,155.57 0,112.19 0,202.5 0,230.37 0,22.22 15.17,48.33 57.85,40.21 439.95,-146.54 677.76,-622.02 531.22,-1061.93 -114.3,-343.15 -435.54,-574.53 -797.21,-574.25l-3.53 -0.71z"/>
 </g>
</svg>
